<?xml version="1.0" encoding="UTF-8" standalone="no"?>
<svg
   xml:space="preserve"
   id="Layer_1"
   width="512"
   height="512"
   x="0"
   y="0"
   version="1.1"
   sodipodi:docname="almaLinux.svg"
   xmlns:inkscape="http://www.inkscape.org/namespaces/inkscape"
   xmlns:sodipodi="http://sodipodi.sourceforge.net/DTD/sodipodi-0.dtd"
   xmlns="http://www.w3.org/2000/svg"
   xmlns:svg="http://www.w3.org/2000/svg"><defs
     id="defs1" /><sodipodi:namedview
     id="namedview1"
     pagecolor="#ffffff"
     bordercolor="#000000"
     borderopacity="0.25"
     inkscape:showpageshadow="2"
     inkscape:pageopacity="0.0"
     inkscape:pagecheckerboard="0"
     inkscape:deskcolor="#d1d1d1" /><style
     id="style2"
     type="text/css">.st1{fill:#86da2f}.st2{fill:#24c2ff}.st3{fill:#ffcb12}.st4{fill:#0069da}.st5{fill:#ff4649}</style><g
     id="g1"
     transform="matrix(7.55434,0,0,7.69665,25.486,26.135)"><path
       id="path22"
       d="m 56.114,33.731 c 2.6,-0.2 4.7,1.5 4.9,4.1 0.2,2.7 -1.7,4.9 -4.3,5.1 -2.5,0.2 -4.7,-1.7 -4.9,-4.2 -0.2,-2.7 1.6,-4.7 4.3,-5 z"
       class="st1" /><path
       id="path24"
       d="m 24.514,55.031 c 0,-2.6 2,-4.6 4.4,-4.6 2.4,0 4.7,2.2 4.7,4.7 0,2.4 -2,4.5 -4.3,4.6 -2.9,0 -4.8,-1.8 -4.8,-4.7 z"
       class="st2" /><path
       id="path26"
       d="m 31.614,25.831 c -0.4,0.2 -0.6,-0.1 -0.7,-0.4 -3.7,-6.9 -2.6,-15.6 3.9,-20.8 1.7,-1.4 4.9,-1.7 6.3,-0.3 0.6,0.5 0.7,1.1 0.8,1.8 0.2,1.5 0.5,3 1.5,4.2 1.1,1.3 2.5,1.8 4.1,1.7 1.4,0 2.8,-0.2 3.7,1.4 0.5,0.9 0.3,4.4 -0.5,5.1 -0.4,0.3 -0.7,0.1 -1,0 -2.3,-0.9 -4.7,-0.9 -7.1,-0.5 -0.8,0.1 -1.2,-0.1 -1.2,-1 -0.1,-1.5 -0.4,-2.9 -1.2,-4.2 -1.5,-2.7 -4.3,-2.8 -6.1,-0.3 -1.5,2 -1.9,4.4 -2.3,6.8 -0.4,2.1 -0.3,4.3 -0.2,6.5 0,0 -0.1,0 0,0 z"
       class="st3" /><path
       id="path28"
       d="m 34.114,27.331 c -0.2,-0.3 -0.1,-0.6 0.2,-0.8 5.7,-5.2 14.2,-6.2 20.8,-1.1 1.7,1.4 2.8,4.3 1.9,6 -0.4,0.7 -0.9,1 -1.5,1.2 -1.4,0.6 -2.7,1.2 -3.6,2.5 -0.9,1.3 -1.1,2.8 -0.7,4.4 0.3,1.3 0.8,2.7 -0.5,3.9 -0.7,0.7 -4.1,1.3 -5,0.7 -0.4,-0.3 -0.3,-0.6 -0.2,-1 0.3,-2.5 -0.3,-4.8 -1.2,-7 -0.3,-0.8 -0.2,-1.2 0.6,-1.4 1.4,-0.4 2.7,-1.1 3.7,-2.1 2.2,-2.1 1.7,-4.8 -1.2,-6 -2.3,-1 -4.7,-0.8 -7,-0.6 -2.2,0.1 -4.3,0.7 -6.3,1.3 z"
       class="st1" /><path
       id="path30"
       d="m 32.814,29.931 c 0.3,-0.3 0.5,-0.2 0.8,0 6.6,4 10,11.9 7,19.6 -0.8,2 -3.4,4 -5.3,3.5 -0.8,-0.2 -1.2,-0.6 -1.6,-1.1 -0.9,-1.2 -1.9,-2.3 -3.4,-2.8 -1.6,-0.5 -3,-0.2 -4.4,0.6 -1.2,0.7 -2.4,1.6 -3.9,0.7 -0.9,-0.5 -2.4,-3.6 -2.1,-4.6 0.2,-0.4 0.6,-0.4 1,-0.4 2.5,-0.4 4.5,-1.6 6.4,-3.2 0.6,-0.5 1.1,-0.5 1.6,0.2 0.8,1.2 1.8,2.2 3.1,2.9 2.6,1.5 5.1,0.2 5.4,-2.8 0.3,-2.5 -0.6,-4.7 -1.4,-6.9 -0.9,-2 -2,-3.9 -3.2,-5.7 z"
       class="st2" /><path
       id="path32"
       d="m 29.614,30.531 c -0.4,2 -1.3,3.9 -2.5,5.6 -3.6,5.4 -8.8,7.6 -15.2,7 -2.3,-0.2 -4.2,-2.1 -4.4,-4 -0.1,-0.8 0.1,-1.4 0.6,-2 0.7,-0.9 1.3,-1.7 1.6,-2.8 0.6,-2.2 -0.2,-4 -1.8,-5.6 -2.2,-2.2 -1.9,-4.2 0.7,-5.8 0.3,-0.2 0.7,-0.4 1.1,-0.6 0.6,-0.3 1.1,-0.3 1.3,0.4 0.9,2.3 2.7,4 4.7,5.4 0.7,0.6 0.7,1 0.1,1.7 -1.2,1.3 -1.9,2.9 -2,4.7 -0.2,2.2 1.1,3.6 3.3,3.6 1.4,0 2.7,-0.5 3.9,-1.1 3.1,-1.6 5.5,-3.9 7.8,-6.3 0.3,-0.1 0.4,-0.3 0.8,-0.2 z"
       class="st4" /><path
       id="path34"
       d="m 13.214,9.531 c 0.2,0 0.7,0.1 1.2,0.2 3.7,0.7 6,-0.6 7.2,-4.1 0.8,-2.3 2.5,-3 4.7,-1.8 0.1,0 0.1,0.1 0.2,0.1 2.3,1.3 2.3,1.5 0.9,3.5 -1.2,1.6 -1.8,3.4 -2.1,5.3 -0.2,1.1 -0.6,1.3 -1.6,0.9 -1.6,-0.6 -3.3,-0.6 -5,0 -1.9,0.6 -2.7,2.3 -2.1,4.2 0.8,2.5 3,3.6 4.9,4.9 1.9,1.3 4.1,2 6.2,2.9 0.3,0.1 0.8,0.1 0.7,0.6 -0.1,0.3 -0.5,0.3 -0.9,0.3 -4.5,0.2 -8.8,-0.5 -12.3,-3.5 -3.3,-2.7 -5.7,-6 -5.3,-10.6 0.3,-1.5 1.4,-2.6 3.3,-2.9 z"
       class="st5" /><path
       id="path36"
       d="m 5.014,37.631 c -2.4,0.3 -4.8,-1.7 -5,-4.2 -0.2,-2.4 1.8,-4.8 4.1,-5 2.6,-0.3 5,1.5 5.2,3.9 0.1,2.3 -1.4,5.1 -4.3,5.3 z"
       class="st4" /><path
       id="path38"
       d="m 47.014,2.031 c 2.5,-0.2 4.9,1.8 5.1,4.3 0.2,2.4 -1.8,4.7 -4.2,4.9 -2.6,0.2 -4.9,-1.7 -5.1,-4.2 -0.2,-2.5 1.6,-4.8 4.2,-5 z"
       class="st3" /><path
       id="path40"
       d="m 20.914,3.931 c 0.3,2.6 -1.5,4.8 -4.2,5.2 -2.3,0.3 -4.7,-1.6 -5,-3.8 -0.3,-2.9 1.3,-5 4,-5.3 2.5,-0.3 4.9,1.6 5.2,3.9 z"
       class="st5" /></g></svg>
