<?xml version="1.0" encoding="UTF-8" standalone="no"?>
<svg
   xml:space="preserve"
   width="512"
   height="512"
   overflow="visible"
   version="1.1"
   id="svg4"
   sodipodi:docname="debian.svg"
   xmlns:inkscape="http://www.inkscape.org/namespaces/inkscape"
   xmlns:sodipodi="http://sodipodi.sourceforge.net/DTD/sodipodi-0.dtd"
   xmlns="http://www.w3.org/2000/svg"
   xmlns:svg="http://www.w3.org/2000/svg"><defs
     id="defs4" /><sodipodi:namedview
     id="namedview4"
     pagecolor="#ffffff"
     bordercolor="#000000"
     borderopacity="0.25"
     inkscape:showpageshadow="2"
     inkscape:pageopacity="0.0"
     inkscape:pagecheckerboard="0"
     inkscape:deskcolor="#d1d1d1" /><g
     fill="#a80030"
     id="g4"
     transform="matrix(1.2583129,0,0,1.2448292,-66.128426,-62.676275)"><path
       d="m 293.793,267.572 c -7.985,0.094 1.51,3.487 11.935,4.847 a 103.904,103.904 0 0 0 7.82,-5.71 c -6.492,1.349 -13.099,1.379 -19.755,0.863 m 42.856,-9.054 c 4.754,-5.563 8.22,-11.653 9.442,-17.95 -1.067,4.49 -3.941,8.365 -6.647,12.455 -14.925,7.965 -1.404,-4.73 -0.01,-9.555 -16.049,17.121 -2.203,10.267 -2.785,15.05 m 15.818,-34.891 c 0.964,-12.188 -2.83,-8.335 -4.106,-3.683 1.489,0.655 2.666,8.59 4.106,3.683 M 263.516,57.045 c 4.261,0.647 9.207,1.144 8.514,2.007 4.66,-0.866 5.718,-1.665 -8.514,-2.007 m 8.514,2.007 -3.013,0.527 2.804,-0.21 0.209,-0.317"
       id="path2" /><path
       d="m 404.903,228.248 c 0.475,10.945 -3.777,16.255 -7.612,25.656 l -6.9,2.923 c -5.648,9.295 0.546,5.901 -3.497,13.295 -8.816,6.643 -26.753,20.79 -32.494,22.081 -4.19,-0.079 2.84,-4.192 3.759,-5.803 -11.802,6.87 -9.469,10.312 -27.518,14.485 l -0.528,-0.995 c -44.514,17.75 -106.347,-17.426 -105.534,-65.424 -0.475,3.047 -1.35,2.286 -2.337,3.518 -2.297,-24.695 13.454,-49.5 40.021,-59.628 25.985,-10.903 56.448,-6.429 75.061,8.275 -10.224,-11.352 -30.574,-23.385 -54.693,-22.259 -23.625,0.316 -45.726,13.043 -53.102,26.857 -12.103,6.46 -13.508,24.9 -18.782,28.274 -7.096,44.205 13.348,63.303 47.93,85.77 5.443,3.11 1.533,3.581 2.27,5.95 a 93.812,93.812 0 0 1 -30.662,-19.875 c 4.59,5.695 9.544,11.231 15.947,15.581 -10.833,-3.11 -25.305,-22.25 -29.53,-23.03 18.675,28.34 75.767,49.703 105.661,39.105 -13.832,0.433 -31.405,0.241 -46.948,-4.629 -6.527,-2.847 -15.405,-8.745 -13.818,-9.849 40.798,12.919 82.943,9.785 118.245,-14.202 8.98,-5.928 18.791,-16.014 21.626,-16.154 -4.27,5.442 0.729,2.618 -2.55,7.424 8.948,-12.233 -3.888,-4.98 9.25,-21.126 l 4.853,5.665 c -1.804,-10.154 14.876,-22.485 13.183,-38.544 3.826,-4.911 4.27,5.284 0.209,16.583 5.634,-12.534 1.484,-14.55 2.932,-24.892 1.564,3.477 3.617,7.171 4.67,10.84 -3.67,-12.113 3.768,-20.398 5.608,-27.438 -1.813,-0.681 -5.665,5.356 -6.545,-8.952 0.129,-6.214 2.04,-3.258 2.777,-4.787 -1.44,-0.7 -5.217,-5.465 -7.514,-14.602 1.666,-2.147 4.452,5.567 6.718,5.883 -1.457,-7.265 -3.967,-12.805 -4.07,-18.38 -6.62,-11.727 -2.341,1.564 -7.713,-5.035 -7.047,-18.632 5.847,-4.323 6.718,-12.79 10.682,13.118 16.774,33.448 19.569,41.87 -2.133,-10.267 -5.581,-20.214 -9.79,-29.837 3.244,1.156 -5.224,-21.125 4.218,-6.369 -10.087,-31.456 -43.167,-60.848 -73.6,-74.64 3.724,2.89 8.425,6.516 6.736,7.085 -15.134,-7.638 -12.472,-8.233 -14.64,-11.461 -12.33,-4.252 -13.14,0.343 -21.306,0.007 -23.239,-10.447 -27.717,-9.336 -49.103,-15.882 l 0.973,3.853 c -15.396,-4.346 -17.938,1.65 -34.578,0.015 -1.013,-0.67 5.332,-2.425 10.553,-3.07 -14.885,1.665 -14.188,-2.485 -28.753,0.46 3.59,-2.135 7.385,-3.548 11.215,-5.363 -12.14,0.625 -28.98,5.988 -23.78,1.11 -19.8,7.488 -54.965,18 -74.697,33.683 l -0.622,-3.514 c -9.043,9.2 -39.43,27.479 -41.852,39.395 l -2.417,0.478 c -4.706,6.753 -7.75,14.406 -11.482,21.355 -6.154,8.889 -9.02,3.42 -8.144,4.813 -12.104,20.802 -18.116,38.28 -23.31,52.615 3.701,4.69 0.089,28.229 1.488,47.067 -6.078,93.043 77.039,183.38 167.891,204.238 13.317,4.038 33.121,3.883 49.966,4.297 -19.875,-4.817 -22.444,-2.553 -41.803,-8.274 -13.966,-5.574 -17.027,-11.94 -26.918,-19.216 l 3.915,5.865 c -19.4,-5.82 -11.282,-7.202 -27.065,-11.439 l 4.182,-4.628 c -6.288,-0.403 -16.654,-8.983 -19.489,-13.732 l -6.878,0.23 c -8.265,-8.644 -12.668,-14.874 -12.348,-19.698 l -2.222,3.356 c -2.52,-3.665 -30.405,-32.417 -15.938,-25.724 -2.688,-2.083 -6.26,-3.39 -10.135,-9.355 l 2.946,-2.855 c -6.963,-7.593 -12.815,-17.325 -12.37,-20.568 3.714,4.252 6.291,5.047 8.842,5.774 -17.582,-36.978 -18.569,-2.038 -31.885,-37.64 l 2.817,-0.193 c -2.16,-2.756 -3.47,-5.75 -5.208,-8.688 l 1.226,-10.358 c -12.659,-12.406 -3.541,-52.75 -1.715,-74.877 1.267,-8.998 10.566,-18.575 17.64,-33.595 l -4.31,-0.63 c 8.238,-12.18 47.037,-48.916 65.006,-47.025 8.704,-9.269 -1.728,-0.034 -3.43,-2.369 19.12,-16.771 25.131,-11.849 38.035,-14.865 13.916,-7.002 -11.944,2.73 -5.346,-2.67 24.056,-5.21 17.05,-11.842 48.433,-14.486 3.31,1.597 -7.683,2.467 -10.442,4.539 20.044,-8.313 63.428,-6.422 91.608,4.613 32.698,12.953 69.436,51.24 70.884,87.265 l 1.649,0.377 c -0.836,14.319 2.586,30.88 -3.342,46.091 l 4.035,-7.2"
       id="path3" /><path
       d="m 206.642,276.863 -1.12,4.746 c 5.247,6.04 9.41,12.587 16.111,17.31 -4.82,-7.977 -8.402,-11.273 -14.991,-22.056 m 12.405,-0.414 c -2.777,-2.602 -4.42,-5.736 -6.26,-8.858 1.76,5.487 5.363,10.203 8.718,14.997 l -2.458,-6.139 m 219.518,-40.442 -1.173,2.493 c -2.15,12.948 -6.794,25.761 -13.912,37.64 7.865,-12.534 12.952,-26.243 15.085,-40.133 M 265.094,53.798 c 5.398,-1.676 13.272,-0.919 19,-2.022 -7.466,0.53 -14.895,0.847 -22.23,1.65 l 3.23,0.372 m -189.53,85.427 c 1.244,9.762 -8.665,13.55 2.195,7.114 5.82,-11.114 -2.275,-3.07 -2.195,-7.114 m -12.762,45.18 c 2.502,-6.508 2.955,-10.418 3.91,-14.184 -6.913,7.491 -3.181,9.088 -3.91,14.184"
       id="path4" /></g></svg>
