<?xml version="1.0" encoding="UTF-8" standalone="no"?>
<svg
   width="512"
   height="512"
   version="1.1"
   id="svg7"
   sodipodi:docname="openwrt.svg"
   xmlns:inkscape="http://www.inkscape.org/namespaces/inkscape"
   xmlns:sodipodi="http://sodipodi.sourceforge.net/DTD/sodipodi-0.dtd"
   xmlns="http://www.w3.org/2000/svg"
   xmlns:svg="http://www.w3.org/2000/svg">
  <sodipodi:namedview
     id="namedview7"
     pagecolor="#ffffff"
     bordercolor="#000000"
     borderopacity="0.25"
     inkscape:showpageshadow="2"
     inkscape:pageopacity="0.0"
     inkscape:pagecheckerboard="0"
     inkscape:deskcolor="#d1d1d1" />
  <defs
     id="defs1">
    <clipPath
       id="a"
       clipPathUnits="userSpaceOnUse">
      <path
         d="M 0,0 H 792 V 612 H 0 Z"
         id="path1" />
    </clipPath>
  </defs>
  <g
     clip-path="url(#a)"
     transform="matrix(11.458802,0,0,-10.741128,-2429.7312,2110.6867)"
     id="g7">
    <path
       d="M 0,0 A 3.016,3.016 0 1 1 0,-6.031 3.016,3.016 0 0 1 0,0"
       style="fill:#00ace2;fill-opacity:1;fill-rule:nonzero;stroke:none"
       transform="translate(234.381,171.686)"
       id="path3" />
    <path
       d="m 0,0 3.139,-3.139 a 21.7,21.7 0 0 0 15.387,6.37 21.705,21.705 0 0 0 15.388,-6.37 L 37.053,0 C 32.313,4.74 25.759,7.694 18.526,7.694 11.294,7.694 4.739,4.74 0,0"
       style="fill:#00ace2;fill-opacity:1;fill-rule:nonzero;stroke:none"
       transform="translate(215.855,187.197)"
       id="path4" />
    <path
       d="m 0,0 3.139,-3.139 a 13.725,13.725 0 0 0 9.724,4.031 13.73,13.73 0 0 0 9.726,-4.031 L 25.729,0 C 22.436,3.293 17.881,5.356 12.865,5.356 7.848,5.356 3.294,3.294 0.001,0"
       style="fill:#00ace2;fill-opacity:1;fill-rule:nonzero;stroke:none"
       transform="translate(221.517,181.534)"
       id="path5" />
    <path
       d="m 0,0 3.139,-3.139 a 5.795,5.795 0 0 0 8.186,0 L 14.464,0 A 10.183,10.183 0 0 1 7.232,2.985 C 4.432,2.985 1.876,1.846 0,0"
       style="fill:#00ace2;fill-opacity:1;fill-rule:nonzero;stroke:none"
       transform="translate(227.149,175.902)"
       id="path6" />
    <path
       d="m 0,0 a 13.696,13.696 0 0 0 2.647,-8.094 c 0,-7.601 -6.186,-13.787 -13.787,-13.787 -7.602,0 -13.787,6.186 -13.787,13.787 0,3.016 0.984,5.817 2.646,8.094 l -3.17,3.17 a 18.055,18.055 0 0 1 -3.908,-11.264 c 0,-10.032 8.186,-18.218 18.219,-18.218 10.032,0 18.218,8.186 18.218,18.218 0,4.247 -1.477,8.156 -3.908,11.264 z"
       style="fill:#002843;fill-opacity:1;fill-rule:nonzero;stroke:none"
       transform="translate(245.522,176.764)"
       id="path7" />
  </g>
</svg>
