<?xml version="1.0" encoding="UTF-8" standalone="no"?>
<svg
   width="512"
   height="512"
   version="1.1"
   id="svg5"
   sodipodi:docname="opensuse.svg"
   xmlns:inkscape="http://www.inkscape.org/namespaces/inkscape"
   xmlns:sodipodi="http://sodipodi.sourceforge.net/DTD/sodipodi-0.dtd"
   xmlns="http://www.w3.org/2000/svg"
   xmlns:svg="http://www.w3.org/2000/svg">
  <defs
     id="defs5" />
  <sodipodi:namedview
     id="namedview5"
     pagecolor="#ffffff"
     bordercolor="#000000"
     borderopacity="0.25"
     inkscape:showpageshadow="2"
     inkscape:pageopacity="0.0"
     inkscape:pagecheckerboard="0"
     inkscape:deskcolor="#d1d1d1" />
  <g
     fill="#73ba25"
     id="g5">
    <path
       fill-rule="evenodd"
       d="m 414.58,144.383 c -4.345,-0.18 -8.466,1.575 -11.615,4.948 -3.149,3.374 -5.006,7.944 -5.138,12.892 -0.301,10.226 6.708,18.829 15.64,19.205 4.344,0.15 8.485,-1.604 11.652,-4.977 3.163,-3.39 4.981,-7.962 5.12,-12.892 0.301,-10.223 -6.706,-18.814 -15.658,-19.177 z m 2.653,20.257 c -3.978,0 -7.192,-2.458 -7.192,-5.472 0,-3.042 3.214,-5.487 7.192,-5.487 3.977,0 7.2,2.445 7.2,5.487 0,3.013 -3.225,5.472 -7.2,5.472 z m 37.796,22.082 c 0.117,-0.104 0.388,-0.377 0.352,-0.629 -0.898,-6.414 -9.265,-37.523 -15.597,-45.004 -1.745,-2.038 -3.142,-4.047 -5.971,-5.937 -22.908,-15.249 -77.257,-24.451 -79.803,-24.872 0,0 -0.255,-0.061 -0.433,0.136 -0.137,0.154 -0.163,0.45 -0.163,0.45 0,0 -0.21,12.863 -0.242,14.301 -5.55,-2.13 -45.9,-17.017 -83.724,-18.516 -32.077,-1.289 -78.792,-6.027 -140.698,37.45 l -1.83,1.301 c -29.124,20.75 -49.23,46.34 -59.741,76.068 -3.297,9.356 -7.73,30.464 -3.336,50.327 1.892,8.682 5.421,17.407 10.18,25.215 10.754,17.646 28.8,29.355 48.232,31.332 27.436,2.803 48.21,-11.272 55.6,-37.628 5.08,-18.186 0,-44.869 -19.476,-58.481 -15.841,-11.08 -32.876,-8.562 -42.758,-1.094 -8.572,6.492 -13.426,16.581 -13.341,27.662 0.198,19.654 15.02,30.1 25.677,30.132 3.096,0 6.206,-0.615 9.712,-1.92 1.248,-0.433 2.422,-0.972 3.715,-1.887 l 0.405,-0.271 0.256,-0.195 -0.085,0.058 c 2.428,-1.89 3.89,-4.964 3.89,-8.261 0,-0.9 -0.11,-1.812 -0.336,-2.73 -1.26,-4.977 -5.564,-7.988 -10.025,-7.06 l -0.603,0.164 -0.815,0.284 -1.183,0.465 c -2.454,0.689 -4.291,0.75 -4.685,0.765 -1.247,-0.092 -7.382,-2.19 -7.382,-9.865 v -0.106 c 0,-2.818 0.99,-4.796 1.536,-5.876 1.908,-3.419 7.133,-6.774 14.193,-6.072 9.265,0.915 15.945,6.342 20.37,16.581 4.106,9.519 3.03,21.228 -2.77,29.805 -5.761,8.498 -16.019,12.11 -29.66,10.433 -13.755,-1.738 -25.383,-10.78 -31.896,-24.855 -6.374,-13.76 -6.722,-30.073 -0.9,-42.605 13.924,-30.027 40.226,-29.714 54.647,-26.867 21.341,4.228 45.62,26.714 54.23,52.68 1.39,4.14 2.1,7.42 2.72,10.42 l 0.929,4.484 24.11,13.447 c 0.518,0.288 0.693,0.386 0.9,0.21 0.249,-0.211 0.107,-0.794 0.107,-0.794 -0.15,-0.615 -0.5,-1.183 -1.057,-8.89 -0.458,-6.84 -1.39,-25.563 6.862,-34.842 3.204,-3.625 8.087,-6.862 11.942,-7.898 15.802,-4.41 34.333,-1.368 51.852,21.797 9.07,11.963 13.491,17.419 15.71,19.863 0,0 0.506,0.545 0.774,0.796 0.293,0.275 0.484,0.507 0.912,0.779 0.732,0.465 30.126,15.923 30.126,15.923 0,0 0.349,0.197 0.606,-0.166 0.254,-0.36 0.013,-0.718 0.013,-0.718 -0.196,-0.255 -18.636,-27.477 -15.354,-49.892 2.585,-17.854 15.024,-16.236 32.232,-14.017 5.617,0.75 12.011,1.588 18.632,1.756 18.485,0.135 38.395,-3.765 50.667,-9.897 7.94,-3.941 13.006,-6.565 16.18,-9.862 1.142,-1.081 1.734,-2.835 2.35,-4.723 l 0.433,-1.246 c 0.514,-1.53 1.269,-4.754 1.6,-6.521 0.134,-0.778 0.29,-1.54 -0.274,-2.038 -0.515,-0.455 -1.699,0.36 -1.699,0.36 -5.388,3.705 -18.859,10.72 -31.453,11.02 -15.637,0.36 -47.32,-18.082 -50.603,-20.03 -2.197,-5.974 -4.391,-11.951 -6.62,-17.912 22.667,17.06 41.467,26.488 55.858,27.943 16.022,1.63 28.511,-8.355 33.932,-12.509 a 34.886,34.886 0 0 0 2.068,-1.722 z m -64.3,-24.54 c 0.23,-7.092 2.828,-13.674 7.368,-18.5 4.541,-4.844 10.466,-7.347 16.679,-7.121 12.81,0.523 22.876,12.876 22.437,27.492 -0.242,7.092 -2.84,13.673 -7.369,18.485 -4.541,4.873 -10.453,7.376 -16.693,7.137 -12.797,-0.54 -22.852,-12.863 -22.423,-27.493 z"
       clip-rule="evenodd"
       id="path2" />
    <path
       d="m 221.817,315.757 c -10.216,0 -15.835,9.865 -15.835,16.686 v 8.756 c 0,10.044 7.184,16.267 13.846,16.267 h 23.388 c 2.946,0 3.563,2.204 3.563,4.063 v 5.65 c 0,0.6 -0.107,6.027 -3.563,6.027 h -31.898 c -3.17,0 -5.46,2.519 -5.46,5.966 v 1.562 c 0,3.434 2.29,5.937 5.46,5.937 h 33.631 c 8.791,0 14.464,-6.986 14.464,-17.81 v -9.446 c 0,-10.163 -6.393,-14.707 -12.739,-14.707 h -23.012 c -3.464,0 -5.034,-2.968 -5.034,-5.066 v -5.217 c 0,-3.284 1.922,-5.188 5.283,-5.188 h 25.473 c 3.123,0 5.474,-2.564 5.474,-5.953 v -1.559 c 0,-3.402 -2.39,-5.969 -5.58,-5.969 h -27.46 z m 95.627,0 c -3.02,0 -5.453,2.803 -5.453,6.252 v 44.734 c 0,3.584 -2.56,6.463 -5.658,6.463 h -17.778 c -3.11,0 -5.655,-2.88 -5.655,-6.463 v -44.734 c 0,-3.45 -2.454,-6.252 -5.472,-6.252 h -1.72 c -3.063,0 -5.473,2.76 -5.473,6.252 v 46.428 c 0,10.81 7.446,18.65 17.704,18.65 h 19.01 c 10.244,0 17.687,-7.838 17.687,-18.65 v -46.428 c 0,-3.491 -2.401,-6.252 -5.46,-6.252 z m 34.033,0 c -10.212,0 -15.847,9.865 -15.847,16.686 v 8.756 c 0,10.044 7.198,16.267 13.865,16.267 h 23.38 c 2.951,0 3.57,2.204 3.57,4.063 v 5.65 c 0,0.6 -0.106,6.027 -3.57,6.027 h -31.911 c -3.156,0 -5.46,2.519 -5.46,5.966 v 1.562 c 0,3.434 2.304,5.937 5.46,5.937 h 33.643 c 8.793,0 14.49,-6.986 14.49,-17.81 v -9.446 c 0,-10.163 -6.41,-14.707 -12.757,-14.707 h -23.01 c -3.474,0 -5.04,-2.968 -5.04,-5.066 v -5.217 c 0,-3.284 1.923,-5.188 5.284,-5.188 h 25.487 c 3.116,0 5.458,-2.564 5.458,-5.953 v -1.559 c 0,-3.402 -2.388,-5.969 -5.592,-5.969 h -27.448 z m 48.456,5.967 v 59.005 c 0,3.387 2.238,5.937 5.203,5.937 H 446.3 c 3.17,0 5.46,-2.503 5.46,-5.937 v -1.562 c 0,-3.447 -2.29,-5.966 -5.46,-5.966 H 412.587 V 358.18 h 24.703 c 3.163,0 5.46,-2.534 5.46,-5.969 v -1.559 c 0,-3.45 -2.297,-5.953 -5.46,-5.953 h -24.703 v -15.471 h 32 c 3.159,0 5.46,-2.488 5.46,-5.953 v -1.56 c 0,-3.45 -2.301,-5.969 -5.46,-5.968 l -39.332,0.004 c -3.027,0 -5.322,2.571 -5.322,5.974 z"
       id="path3" />
    <g
       stroke-width="0"
       id="g4">
      <path
         d="m 55.346,343.844 c -5.158,0 -9.357,4.585 -9.357,10.239 v 22.247 c 0,5.743 4.063,10.421 9.044,10.421 h 12.599 c 4.981,0 9.044,-4.678 9.044,-10.42 v -22.248 c 0,-5.651 -4.2,-10.24 -9.357,-10.24 z m -2.725,31.603 v -20.315 c 0,-2.382 1.713,-4.33 3.807,-4.33 h 9.816 c 2.049,0 3.794,1.992 3.794,4.33 v 20.315 c 0,2.398 -1.7,4.346 -3.794,4.346 h -9.89 c -2.099,0 -3.733,-1.906 -3.733,-4.346 z m 52.586,-31.867 c -3.633,0 -6.372,1.484 -8.57,2.698 -1.34,0.734 -2.5,1.368 -3.4,1.368 -0.408,0 -0.755,-0.21 -0.94,-0.555 l -0.837,-1.83 c -0.21,-0.481 -1.05,-1.423 -2.088,-1.423 h -1.246 c -1.197,0 -2.154,1.228 -2.154,2.727 v 56.43 c 0,1.77 1.222,3.164 2.769,3.164 h 1.077 c 1.536,0 2.783,-1.41 2.783,-3.163 V 384.27 c 0,-0.554 0.316,-1.154 0.636,-1.154 0.9,0 2.06,0.602 3.4,1.304 2.198,1.155 4.937,2.577 8.57,2.577 h 1.162 c 6.432,0 10.433,-4.2 10.433,-10.944 v -21.54 c 0,-6.642 -4.086,-10.93 -10.433,-10.93 h -1.162 z m -12.603,31.428 v -19.432 c 0,-2.684 1.837,-4.78 4.185,-4.78 h 9.2 c 2.35,0 4.185,2.098 4.185,4.78 v 19.432 c 0,2.637 -1.883,4.78 -4.184,4.78 h -9.201 c -2.305,0 -4.185,-2.143 -4.185,-4.78 z m 33.482,-20.936 v 22.082 c 0,5.727 4.07,10.584 8.871,10.584 h 13 c 1.606,0 2.769,-1.273 2.769,-3 v -0.973 c 0,-1.738 -1.163,-2.985 -2.77,-2.985 h -10.678 c -2.993,0 -4.572,-1.68 -4.572,-4.875 v -6.46 h 19.265 c 3.099,0 4.93,-2.159 4.93,-5.817 v -8.561 c 0,-5.65 -4.193,-10.24 -9.331,-10.24 l -12.138,0.003 c -5.157,0.006 -9.346,4.589 -9.346,10.242 z m 6.622,0.976 c 0,-2.385 1.642,-4.257 3.732,-4.257 h 10.12 c 2.085,0 3.712,1.872 3.712,4.257 v 6.894 h -17.566 c 0.002,-0.9 0.002,-6.894 0.002,-6.894 z M 183.68,343.58 c -3.62,0 -6.353,1.484 -8.558,2.685 -1.372,0.737 -2.544,1.38 -3.501,1.38 -0.422,0 -0.592,-0.06 -0.919,-0.707 l -0.762,-1.588 c -0.437,-1.004 -1.18,-1.512 -2.184,-1.512 h -1.07 c -1.294,0 -2.238,1.152 -2.238,2.727 v 37.015 c 0,1.754 1.213,3.163 2.776,3.163 h 1.07 c 1.536,0 2.788,-1.425 2.788,-3.163 v -28.004 c 0,-2.624 1.876,-4.78 4.173,-4.78 h 9.206 c 2.304,0 4.18,2.156 4.18,4.78 v 28.004 c 0,1.754 1.22,3.163 2.77,3.163 h 1.081 c 1.536,0 2.784,-1.425 2.784,-3.163 v -29.07 c 0,-6.642 -4.089,-10.93 -10.44,-10.93 z"
         id="path4" />
    </g>
    <path
       d="m 460.974,372.4 c 2.804,0 5.037,2.603 5.037,5.86 0,3.306 -2.235,5.883 -5.06,5.883 -2.803,0 -5.082,-2.577 -5.082,-5.882 0,-3.256 2.279,-5.862 5.082,-5.862 z m -0.023,0.91 c -2.256,0 -4.102,2.213 -4.102,4.948 0,2.787 1.846,4.972 4.125,4.972 2.28,0.03 4.102,-2.185 4.102,-4.946 0,-2.76 -1.823,-4.975 -4.102,-4.975 z m -0.957,8.358 h -0.912 v -6.534 c 0.479,-0.079 0.935,-0.158 1.618,-0.158 0.868,0 1.437,0.208 1.777,0.495 0.343,0.284 0.528,0.725 0.528,1.354 0,0.857 -0.502,1.378 -1.117,1.588 v 0.055 c 0.502,0.103 0.843,0.623 0.958,1.588 0.138,1.018 0.271,1.407 0.364,1.615 h -0.958 c -0.138,-0.208 -0.274,-0.807 -0.387,-1.667 -0.138,-0.831 -0.502,-1.147 -1.231,-1.147 h -0.638 v 2.811 z m 0,-3.62 h 0.66 c 0.753,0 1.39,-0.31 1.39,-1.12 0,-0.574 -0.363,-1.147 -1.39,-1.147 -0.297,0 -0.501,0.026 -0.66,0.055 z"
       id="path5" />
  </g>
</svg>
